<?xml version="1.0" encoding="UTF-8" standalone="no"?><svg xmlns="http://www.w3.org/2000/svg" width="496" height="712" viewBox="280 138 496 712">
  <defs>
    <style type="text/css">
      <![CDATA[
	.cls-1,.cls-3,.cls-4,.cls-6{fill:#fff;}
	.cls-2{fill:#0e3b6e;}
	.cls-2,.cls-3,.cls-5{stroke:#fff;}
	.cls-2,.cls-5{stroke-width:5.25px;}
	.cls-23,.cls-24,.cls-3{stroke-width:0.52px;}
	.cls-10,.cls-11,.cls-12,.cls-14,.cls-15,.cls-16,.cls-17,.cls-18,.cls-19,.cls-20,.cls-21,.cls-22,.cls-23,.cls-24,.cls-25,.cls-26,.cls-27,.cls-28,.cls-29,.cls-30,.cls-4,.cls-6,.cls-7,.cls-8{stroke:#000;}
	.cls-25,.cls-4,.cls-6{stroke-width:2.1px;}
	.cls-13,.cls-20,.cls-21,.cls-22,.cls-23,.cls-28,.cls-30,.cls-5,.cls-7,.cls-8{fill:none;}
	.cls-5,.cls-6,.cls-7,.cls-8{stroke-linecap:square;stroke-miterlimit:2;}
	.cls-7{stroke-width:2.94px;}.cls-8{stroke-width:5.25px;}
	.cls-10,.cls-11,.cls-12,.cls-14,.cls-15,.cls-16,.cls-17,.cls-18,.cls-19,.cls-24,.cls-25,.cls-26,.cls-27,.cls-29,.cls-9{fill:#f6c900;}
	.cls-10,.cls-30{stroke-width:1.41px;}
	.cls-11{stroke-width:0.21px;}.cls-12{stroke-width:1.57px;}
	.cls-14{stroke-width:0;}
	.cls-15{stroke-width:1.89px;}
	.cls-16{stroke-width:1.47px;}
	.cls-17{stroke-width:1.99px;}
	.cls-18,.cls-28{stroke-width:1.26px;}
	.cls-19,.cls-20{stroke-width:1.05px;}
	.cls-21,.cls-29{stroke-width:0.73px;}
	.cls-22{stroke-width:0.84px;}
	.cls-26{stroke-width:2.2px;}
	.cls-27{stroke-width:0.64px;}
      ]]>
    </style>
  </defs>
<title>KMar</title>
<circle cx="529.58" cy="181.4" r="16.56"/><path d="M510.76,199.09a4.42,4.42,0,1,1,4.41,4.41A4.42,4.42,0,0,1,510.76,199.09Z"/><path d="M498,206.24a4.86,4.86,0,1,1,4.86,4.86A4.87,4.87,0,0,1,498,206.24Z"/><path d="M485.68,211.14a5.25,5.25,0,1,1,5.25,5.25A5.26,5.26,0,0,1,485.68,211.14Z"/><path d="M435.14,227.4a5.94,5.94,0,1,1,5.94,5.94A5.93,5.93,0,0,1,435.14,227.4Z"/><path d="M543.44,203.78a4.4,4.4,0,1,1,4.4-4.39A4.4,4.4,0,0,1,543.44,203.78Z"/><path d="M556,210.87a4.66,4.66,0,1,1,4.66-4.65A4.66,4.66,0,0,1,556,210.87Z"/><path d="M567.68,216.37a5.2,5.2,0,1,1,5.19-5.2A5.2,5.2,0,0,1,567.68,216.37Z"/><path d="M617.74,233.15a5.94,5.94,0,1,1,5.93-5.93A5.93,5.93,0,0,1,617.74,233.15Z"/><path class="cls-1" d="M624.73,298.77a7.59,7.59,0,0,0-2,3.71,15.62,15.62,0,0,0-.83,5.38,9.82,9.82,0,0,0,1.74,3.67s-5.59-.7-5.5-5.11c0-.95.13-1.18,1-1.71s1.58-1.7,2.1-2.23-1.83-1.27-1.83-1.27a31.37,31.37,0,0,0,2.62-6.29A4.64,4.64,0,0,0,624.73,298.77Z"/><path class="cls-1" d="M453.69,301.85a18.46,18.46,0,0,0,4,.59s1.83,2,2.62,2.1S459,306,456.58,306c-2,0-3.87-1.18-4.79-1.57a11.87,11.87,0,0,1-3.19-2.15,11.72,11.72,0,0,0,.31-1.92,13.05,13.05,0,0,0-.33-4.26C449.3,300,451.18,301,453.69,301.85Z"/><path d="M523.29,358.76c-19.24,0-25.89,1-49-2.1-28.33-3.85-39.18-7.7-39.18-7.7l-5.6-3.32s-3.67-1.68-5.75-11.78c-.91-4.46,0-8.16,1.38-12.36s4.2-5.07,4.2-5.07l-7.48-8.53c-1.44.66-3.36,0-4.81-1.35a4.83,4.83,0,0,1-.79-6.17,21.28,21.28,0,0,0-6.51.13c-3.85.7-4.79-.4-5.07-2.27-.35-2.27.17-3.76,1.22-4.55a9.55,9.55,0,0,1,2.45-1.22s.31-2.58,1.22-3.5,1.4-.79,3.5-1.05a112.15,112.15,0,0,1-13.64-16.79c-5-7.52-3.61-19.39,2.89-25.89,6.29-6.29,8.65-9.18,19.15-12.59a38.62,38.62,0,0,1,16.44-1.4s0-2.19,15-5.68c11.71-2.73,28.34-5.78,46.88-14.61,17-8.08,19.24-12.59,19.94-15.39s3.15-26.94,3.15-26.94v-.87c.43-1.66,1.84-10.15,1.84-10.15a31.6,31.6,0,0,0-4.9.6l-4.73,1V147.47s3.69.34,5.33.43,4.55.17,4.55.17-.43-2.92-.77-4.21-1.12-4.73-1.12-4.73,4-.43,6.62-.43,6.62.43,6.62.43-.77,3.44-1.12,4.73-.77,4.21-.77,4.21,2.92-.09,4.55-.17,5.33-.43,5.33-.43v11.78l-4.72-1a31.6,31.6,0,0,0-4.9-.6s1.39,8.49,1.83,10.15v.87s2.45,24.14,3.15,26.94,2.61,7.16,19.41,15.57c16.09,8,31,10.67,48.8,15.21,15,3.82,13.65,4.9,13.65,4.9a44.71,44.71,0,0,1,16.79,2.1c9.09,3.15,14.51,8.48,19,13.2s6.83,15.48,1.58,24.14c-4.69,7.74-13.21,16.71-13.21,16.71,1.7.21,2.74-.16,4.07,1.18.92.92.88,3.63.88,3.63a4.71,4.71,0,0,1,2.49.78,5.44,5.44,0,0,1,1.57,4.59c-.17,1.93-.83,4.1-4.33,3.55a27.74,27.74,0,0,0-6.43-.4c.79,1.71.4,3.81-1.53,5.82a6.1,6.1,0,0,1-5.94,1.53l-6.65,7.65a14.59,14.59,0,0,1,4.5,6.3,23,23,0,0,1,1,12.07c-1.66,8-5.46,11.1-5.46,11.1l-2.49,1.32s-13.56,5.86-41.2,9.7-37.43,1.84-56.67,1.84ZM491.45,232A79.79,79.79,0,0,1,475,236.32a4.21,4.21,0,0,0-3.41,3.94c-.34,4.07.61,9.88,2.36,17.75a166,166,0,0,1,2.63,18.19,6.6,6.6,0,0,1,4,1.58,10.93,10.93,0,0,1,3,4.19c.7,2.1.88,3.68.35,4.9-1,2.3-1.57,4-1.57,4a16.23,16.23,0,0,1-1.93,5.78,12.31,12.31,0,0,1-3.84,3.67,7.8,7.8,0,0,0,5.11.66c2.93-.66,5-4.51,5.73-5.38a2.21,2.21,0,0,0,.35-2.45,16.76,16.76,0,0,1-1.92-4c-.51-1.41,1.05-1,1.92-.88a31.49,31.49,0,0,1-.18-6.82c.35-3.67.88-4.37,2.28-6.12s3.23-1.5,4.72-.18a10.92,10.92,0,0,1,3.5,6.12,47.74,47.74,0,0,1,.52,6.3c1.05-.52,2.63-.7,2.1.88a17.54,17.54,0,0,1-.87,3.14c-.53,1.05-.86,2.38,2.71,5.08,4.63,3.5,7.7,2.18,12.07.26a35.73,35.73,0,0,0,4.72-2.62l-.92-.92a4.59,4.59,0,0,1-6,.13c-1.52-1.12-1.75-2.8-1.75-4.37a7.79,7.79,0,0,1-4.16-2.1c-1.44-1.45-2.13-5.51.49-7.52a19.2,19.2,0,0,1,4.59-2.41s-.26-2.41.26-3.28a2.81,2.81,0,0,1,2.36-1.57,75.12,75.12,0,0,1-4.66-27.38,171.14,171.14,0,0,1,2-23.26S500.87,228.38,491.45,232Zm55.62-10.67s2.45,15.57,2.45,25c0,15.48-4.37,25-4.37,25,1.75.35,2.67,2.06,3.19,2.93a16.3,16.3,0,0,1,.83,4.07,6.84,6.84,0,0,1,3.68,2.27c1.31,1.58,1.57,5.6-.18,7.53a7.76,7.76,0,0,1-4.2,2.27c0,1.57-.5,4.06-2.1,5.07-3.32,2.1-8.22-.17-8.22-.17l-1.61,1a18.25,18.25,0,0,0,7.21,3c2.57.41,8.31-.26,13-3.54,3.66-2.57,3.45-3.11,2.93-4.16s-1.4-2.62-1.58-3.14c-.52-1.58,1.58-1.75,2.63-1.23a24.14,24.14,0,0,1,.52-6,8.58,8.58,0,0,1,3.67-5.59c1.58-1.23,3-.86,4.2,1.05a8.9,8.9,0,0,1,1.75,5.59,56.88,56.88,0,0,0,0,6.13c.88-.18,3.3-.71,2.8.7a16.76,16.76,0,0,1-1.92,4,1.9,1.9,0,0,0-.18,2.27,14,14,0,0,0,6.82,5.42,4.2,4.2,0,0,0,3.94-.52,16.83,16.83,0,0,1-3.81-3.67,11.49,11.49,0,0,1-1.77-5.08c-.26-.91-1.51-2.14-2-4a8.11,8.11,0,0,1,.79-6.29,7.17,7.17,0,0,1,4.06-3.54,6.83,6.83,0,0,1,3-.53,101.2,101.2,0,0,1,1.92-17c1.75-7.87,2.1-13.7,2.93-18.71.4-2.36-1.18-4.9-3.14-5.25-5.06-.9-11.33-1.66-19-5C552.89,226,547.07,221.28,547.07,221.28Zm63.32,73.42a8.2,8.2,0,0,1-3.85,6.16,5.78,5.78,0,0,1-4.11.7,19.12,19.12,0,0,1-2,1.58,10.56,10.56,0,0,1-2,.87s.44,1,3.2,1.4,4.58-1.14,5.94-1.75a18.36,18.36,0,0,0,4-2.27c.26-.39,0-.79-.18-2.76a10.2,10.2,0,0,1,1-4.32,12.44,12.44,0,0,1,2.8-4.11c1.47-1.56,2.58-2.59,4.55-1.93s1.18.18,1.57,1.75,1.23,5.07,1.23,5.07.69-3.5,3.49-3.15c1.57.2,1.71,1,2.89.66.44-.13,1.09-1.66,1.49-2.58s2.1-1.22,2.1-1.22.43-3.42,4.19-8.92c2.52-3.69,6.67-9.79,8.75-14.43,2.62-5.86,2.1-10.24-.7-13-5.45-5.44-11-6.82-17-6.82,0,0-1.4,4.64-10.14,19.94-4.38,7.66-11.72,20.64-11.72,20.64s2.65,1.22,3.5,2.63A8.94,8.94,0,0,1,610.39,294.7Zm-176.13,4.24a14.51,14.51,0,0,1,1.92,3.5,10.72,10.72,0,0,1,.88,4.9,16.44,16.44,0,0,1-1.4,3.49s4.37.53,5.68-4.41c.24-.92-.13-1.18-1-1.71s-1.57-1.7-2.1-2.23,1.14-1.27,1.14-1.27a14.62,14.62,0,0,0-1.05-3.67,14.9,14.9,0,0,1-.7-5.07l-.35.87a11,11,0,0,1,0-3.14,4.58,4.58,0,0,1,3-3.5c2-.66,3.09.72,4.55,2.27a22.77,22.77,0,0,1,3.76,6.52s-1.31-4.6,1.1-7.18a17.38,17.38,0,0,1,2.84-2.14s-7.61-13.73-12.07-21.34a182.1,182.1,0,0,1-8.85-18.1c-8.53.26-13.37,1.82-17.18,5.23-3.32,3-3,6.58-.64,12.87,2.48,6.49,5.2,10.23,8.35,15.35s4.59,8.13,4.59,8.13a2.09,2.09,0,0,1,1.57,1.05,9.58,9.58,0,0,0,1.31,2,6.75,6.75,0,0,1,3.55-.26c2,.39,2.75,2.1,2.93,3.85A4.47,4.47,0,0,1,434.26,298.94Z"/><path class="cls-2" d="M529.63,841.12c2.62-.36,16.75-2.82,35.61-15.19,19.64-12.89,49.32-32.37,86.62-99.27,27-48.4,49.24-109,66.12-180.21,15.72-66.25,19-111.74,19.63-125.87-12.59-1.74-46.55-7.8-72-24.93-20.15-13.55-32-30.37-39.8-41.53a125.12,125.12,0,0,1-19.87,5.58c-17.77,3.7-35.14,5.71-76,5.71-41.74,0-60-2.1-77.3-5.71a124.76,124.76,0,0,1-19.86-5.57l-.77,1.11c-7.95,11.52-18.84,27.29-38.34,40.41-25.48,17.13-59.44,23.19-72,24.93.66,14.13,3.92,59.62,19.63,125.87,16.88,71.17,39.13,131.81,66.12,180.21,37.3,66.9,67,86.38,86.63,99.27C512.92,838.32,527.06,840.76,529.63,841.12Z"/><path class="cls-3" d="M571.9,637.79a94.44,94.44,0,0,0,16-3.37c13.89-3.92,20.83-13.26,24.84-19.94,4.24-7.07,6.29-17.84,5.94-31.14-.05-2.14-.27-4.78-.5-7.58a98.6,98.6,0,0,1-.55-12.64s0,0,.18-2.61c.41-5.79,1-14.55-.18-20.89a65.93,65.93,0,0,0-3.78-11.77,28.38,28.38,0,0,1-1.81-5.37c-.16-1.22-.24-3-.35-5.26-.14-2.91-.31-6.53-.7-10.49-.75-7.41-3.68-14.8-6.72-21.16a54.24,54.24,0,0,0-7.87-12.07c-.58-.7-3.28-3.41-3.28-3.41s-.78-2.76-1.37-5.68-6.27-17-9.1-21.69a122,122,0,0,0-10.25-14.22,51,51,0,0,0-4.46-4.59c-3.54-11.93-8.68-20.32-13.62-25.62s-15.06-9.1-24.84-9.1c-11,0-20.06,3.59-27.91,12.42-7,7.92-9.56,18.62-10.46,22.74-.43.47-10.67,12.17-15.85,21.16s-8.61,23.19-8.75,23.79h0s-10.94,9.8-14.68,24.46c-2.42,9.48-3.4,13.36-3.75,17-.25,2.59-.35,8.57-.35,8.57-3,7.87-5.77,16.09-6.65,26.79a54.13,54.13,0,0,0,0,8c1.57,16.75,1,19.63,0,27.77-2.9,22.47,3.73,30.23,8.29,36.82,6.67,9.62,16,13.49,24.49,16.44A66.44,66.44,0,0,0,489.53,638l-1.27,1.1a16.12,16.12,0,0,0-3.3,8.57,10.78,10.78,0,0,0,3,7.9,9.85,9.85,0,0,0,3.08,2.06,1.55,1.55,0,0,1,.92,1.06,21,21,0,0,0,1.17,3.59c1.14,2.57,2.31,5.22,4.08,7a1.56,1.56,0,0,1,.36,1.59l-.35,1.13c-.43,1.44-.57,1.87-.93,2.24a1.53,1.53,0,0,1-.38.29,73,73,0,1,0,69.06-.92,1.57,1.57,0,0,1-.27-2.61l.21-.18-.12.11a24.93,24.93,0,0,0,5.1-8.55,22.56,22.56,0,0,0,.66-4.05,1.56,1.56,0,0,1,.86-1.26,8.52,8.52,0,0,0,2.07-1.49c1.89-1.89,2.85-4.65,2.85-8.2a13,13,0,0,0-1.19-5.57,19.18,19.18,0,0,0-2.42-3.39Z"/><path class="cls-4" d="M572.74,638.4a19.18,19.18,0,0,1,2.42,3.39,13,13,0,0,1,1.19,5.57c0,3.55-1,6.31-2.85,8.2a8.52,8.52,0,0,1-2.07,1.49,1.56,1.56,0,0,0-.86,1.26,22.56,22.56,0,0,1-.66,4.05,24.93,24.93,0,0,1-5.1,8.55l.12-.11-.21.18a1.57,1.57,0,0,0,.27,2.61,73,73,0,1,1-69.06.92,1.53,1.53,0,0,0,.38-.29c.36-.37.5-.8.93-2.24l.35-1.13a1.56,1.56,0,0,0-.36-1.59c-1.77-1.81-2.94-4.46-4.08-7a21,21,0,0,1-1.17-3.59,1.55,1.55,0,0,0-.92-1.06,9.85,9.85,0,0,1-3.08-2.06,10.78,10.78,0,0,1-3-7.9,16.12,16.12,0,0,1,3.3-8.57"/><rect class="cls-1" height="7" width="71.01" x="495.74" y="650.16"/><path d="M557.92,669.4c-1,1.05,2.16,1.4,2.51,3.5s3.22,4.17,5.6,5.68c5.77,3.68,14.66,8.85,22.39,20.9,10.14,15.83,13.78,25,12,48.89-1,13.91-11.54,30.7-25.19,43.55s-33.06,15.48-45.39,15.48-36.2-6.29-48.27-20.72S461.35,757,461.35,740a70.64,70.64,0,0,1,14.43-43c10-12.86,19.15-17.06,21.51-18.37s3.41-5,3.94-7.08c.35-1.42.18-5.3,2.82-5.42a8.69,8.69,0,0,0,6.29,3.32Z"/><path class="cls-1" d="M569.32,637.92s5.12.3,18.61-3.5c13.89-3.92,20.83-13.26,24.84-19.94,4.24-7.07,6.29-17.84,5.94-31.14-.05-2.14-.27-4.78-.5-7.58a98.6,98.6,0,0,1-.55-12.64s0,0,.18-2.61c.41-5.79,1-14.55-.18-20.89a65.93,65.93,0,0,0-3.78-11.77,28.38,28.38,0,0,1-1.81-5.37c-.16-1.22-.24-3-.35-5.26-.14-2.91-.31-6.53-.7-10.49-.75-7.41-3.68-14.8-6.72-21.16a54.24,54.24,0,0,0-7.87-12.07c-.58-.7-3.28-3.41-3.28-3.41s-.78-2.76-1.37-5.68-6.27-17-9.1-21.69a122,122,0,0,0-10.25-14.22,51,51,0,0,0-4.46-4.59c-3.54-11.93-8.68-20.32-13.62-25.62s-15.06-9.1-24.84-9.1c-11,0-20.06,3.59-27.91,12.42-7,7.92-9.56,18.62-10.46,22.74-.43.47-10.67,12.17-15.85,21.16s-8.61,23.19-8.75,23.79h0s-10.94,9.8-14.68,24.46c-2.42,9.48-3.4,13.36-3.75,17-.25,2.59-.35,8.57-.35,8.57-3,7.87-5.77,16.09-6.65,26.79a54.13,54.13,0,0,0,0,8c1.57,16.75,1,19.63,0,27.77-2.9,22.47,3.73,30.23,8.29,36.82,6.67,9.62,16,13.49,24.49,16.44,9,3.11,22.18,3.15,22.74,3.15"/><path d="M465.43,468.08c2.62-10.32,4.95-18,8.92-24.84,5.3-9.18,15.11-18.88,15.54-19.36,1.07-4.59,3.36-15.18,10.43-23.14,8.28-9.31,17.55-13.23,29.19-13.23,10.32,0,20,4,25.64,9.73,8.58,8.75,14,24.71,14,24.71a46,46,0,0,1,7.21,7.21,86.72,86.72,0,0,1,8.09,12.42c2.92,5.17,8.42,18.65,8.84,21.95.34,2.76,1,6,1,6a39.25,39.25,0,0,1,3.94,3.8,52.46,52.46,0,0,1,7.3,10.42c3.2,6.47,6.76,15,7.53,22.73a91,91,0,0,1,.39,10.4,50.8,50.8,0,0,0,.18,5.25,43.28,43.28,0,0,0,2.05,5.25c1.35,3.41,3.15,7.31,4,11.8,1.25,6.62.62,15.54.2,21.44l-.17,2.53a86.19,86.19,0,0,0,0,12.28c.23,2.83.58,5.62.64,7.82.36,13.7-1.38,24.86-5.82,32.27-4.2,7-11.46,16.76-26.07,20.88-13.84,3.9-19,3.24-19.27,3.23l.09-1.75s5.12.3,18.61-3.5c13.89-3.92,20.83-13.26,24.84-19.94,4.24-7.07,6.29-17.84,5.94-31.14-.05-2.14-.27-4.78-.5-7.58a98.6,98.6,0,0,1-.55-12.64s0,0,.18-2.61c.41-5.79,1-14.55-.18-20.89a65.93,65.93,0,0,0-3.78-11.77,28.38,28.38,0,0,1-1.81-5.37c-.16-1.22-.24-3-.35-5.26-.14-2.91-.31-6.53-.7-10.49-.75-7.41-3.68-14.8-6.72-21.16a54.24,54.24,0,0,0-7.87-12.07c-.58-.7-3.28-3.41-3.28-3.41s-.78-2.76-1.37-5.68-6.27-17-9.1-21.69a122,122,0,0,0-10.25-14.22,51,51,0,0,0-4.46-4.59c-3.54-11.93-8.68-20.32-13.62-25.62s-15.06-9.1-24.84-9.1c-11,0-20.06,3.59-27.91,12.42-7,7.92-9.56,18.62-10.46,22.74-.43.47-10.67,12.17-15.85,21.16s-8.61,23.19-8.75,23.79h0s-10.94,9.8-14.68,24.46c-2.42,9.48-3.4,13.36-3.75,17-.25,2.59-.35,8.57-.35,8.57-3,7.87-5.77,16.09-6.65,26.79a54.13,54.13,0,0,0,0,8c1.57,16.75,1,19.63,0,27.77-2.9,22.47,3.73,30.23,8.29,36.82,6.67,9.62,16,13.49,24.49,16.44,9,3.11,22.18,3.15,22.74,3.15v2.1c-.58,0-14.11,0-23.43-3.27-8.82-3.05-20.17-9.19-25.55-17.26-4.62-6.94-10.47-15.16-8.74-36.22.64-7.78,1.27-12.26,1.15-14.36-.26-4.72-.78-17.31-.52-22.56.51-10.23,3.76-19.88,5.77-25.1.88-2.27.7-7.87,1.05-11.37.37-3.7,1.08-8.1,3.81-17.66C454.37,477.87,462.8,470.88,465.43,468.08Z"/><path d="M479.62,633s-14-2.1-21.68-9.1A39.65,39.65,0,0,1,445,600.49a47.38,47.38,0,0,1,0-15.4A82,82,0,0,0,453,598.74c4.55,5.94,15.39,18.54,20.29,21.69a106.14,106.14,0,0,1,11.19,8c2.45,2.1,6.65,5.95,6.65,5.95s-11.2-7-18.19-11.55-15.39-12.94-18.19-16.44-3.85-4.55-3.85-4.55,3.78,9.17,7.69,13a120.63,120.63,0,0,0,20.3,15.39s-12-6.21-16.8-9.79a49.54,49.54,0,0,1-9.44-9.1,26.37,26.37,0,0,0,3.69,6.73,30.68,30.68,0,0,0,10.65,9C472,629.42,479.62,633,479.62,633Z"/><path d="M485.22,622.52s-16.79-7.69-23.09-16.79-14-17.49-16.09-28.68-2.1-28.34-1.05-36,2.1-10.15,2.1-10.15,2.1,12.24,5.6,19.59,9.09,20.29,19.24,34.28,17.14,24.14,22,32.19,8.39,18.89,8.39,18.89-4.55-7.35-10.14-15.39S477.3,601.36,469.48,591c-17.49-23.09-21-40.93-21-40.93s-.53,7.78,5.25,19.94c6.64,14,13.29,24.49,20.64,32.53s17.49,21.69,17.49,21.69a226.81,226.81,0,0,1-17.49-15.39,111.42,111.42,0,0,1-17.84-24.14c-3.85-7-6.3-10.84-6.3-10.84s.35,8,6.65,17.84a105.89,105.89,0,0,0,17.49,20.64C478.58,616.23,485.22,622.52,485.22,622.52Z"/><path d="M510.41,611.68s-1.05-3.85-2.1-8.4a292.94,292.94,0,0,0-10.5-39.88c-7.34-21.68-14-29.73-19.58-48.62s-11.2-30.6-8.2-47.84c2.73-15.74,8.81-24.61,12.85-29.3,4.38-5.07,8.64-9.27,8.64-9.27a76,76,0,0,0-.35,8.4c0,5.6.35,23.09,3.15,37.78s6.64,31.13,11.54,54.57a504.1,504.1,0,0,1,8.75,60.52c2.1,27.64,1.75,48.28,1.75,48.28s-2.1-15.4-3.85-37.43-4.2-40.93-9.1-62.27-8.66-37.1-12.59-54.22c-4.9-21.34-2.8-42.68-2.8-42.68a26.22,26.22,0,0,0-4.55,13.29,116.66,116.66,0,0,0,2.1,26.59c1.75,8.39,5.25,17.84,8.75,33.93s8.74,37.78,8.74,37.78-10.84-23.79-15.74-40.23-8.39-35.33-8.74-43.73a93.82,93.82,0,0,1,1-16.79s-3.84,4.2-4.19,18.54,4.19,29.39,8,41.28,15.18,36.09,18.19,47.93c4.9,19.24,9.1,43,9.45,45.82A15.8,15.8,0,0,1,510.41,611.68Z"/><path d="M580.15,633.32s14-2.09,21.69-9.09a39.68,39.68,0,0,0,12.95-23.44,47.33,47.33,0,0,0,0-15.39,81.68,81.68,0,0,1-8,13.64c-4.55,6-15,17.71-20.29,21.69-4.66,3.49-8.74,5.95-11.19,8s-6.65,5.94-6.65,5.94,11.19-7,18.19-11.54,15.39-12.94,18.19-16.44,3.85-4.55,3.85-4.55-3,7.92-7.7,12.94a83.88,83.88,0,0,1-20.29,15.4s13.34-5.86,19.22-10.28a25.4,25.4,0,0,0,7-8.61,24.42,24.42,0,0,1-4.22,7.58c-2.71,3-4.37,4.7-10.12,8.16A108.25,108.25,0,0,1,580.15,633.32Z"/><path d="M574.56,622.83s16.79-7.7,23.08-16.79,14-17.49,16.1-28.69,2.1-28.33,1-36-2.1-10.14-2.1-10.14-2.1,12.24-5.6,19.59-9.1,20.29-19.24,34.28-17.14,24.14-22,32.18-8.39,18.89-8.39,18.89,4.54-7.34,10.14-15.39,14.92-19.06,22.74-29.38c17.49-23.09,21-40.93,21-40.93s.52,7.78-5.25,19.94c-6.65,14-13.29,24.48-20.64,32.53s-17.49,21.69-17.49,21.69a229.3,229.3,0,0,0,17.49-15.39,112,112,0,0,0,17.84-24.14c3.85-7,6.3-10.85,6.3-10.85s-.35,8-6.65,17.85a106.2,106.2,0,0,1-17.49,20.64C581.2,616.53,574.56,622.83,574.56,622.83Z"/><path d="M562.66,614.08a118.61,118.61,0,0,0,8.4-10.14c3.5-4.9,7.69-15,15.39-26.24s16.09-26.23,19.59-35.33,4.61-26.89,1.73-40.53c-2.94-13.87-7.59-18.7-9.43-21a19.28,19.28,0,0,0-5.59-4.89,52.36,52.36,0,0,1,1.4,7.34c.35,3.5-.35,14.34-4.9,26.59s-9.45,26.23-16.79,40.58-11.2,25.18-15.39,43.38-8.75,43.72-8.75,43.72a9.55,9.55,0,0,0,2.1-3.85c.7-2.44,6.65-23.78,9.79-34.28s8.4-27.63,15.4-41.28,12.24-24.48,16.09-37.43,5.94-23.44,5.94-23.44a77.56,77.56,0,0,1,.35,11.9c-.35,6-4.89,22.39-9.79,33.58s-14,29.39-20.64,45.48a248.8,248.8,0,0,0-10.84,34.63s8-22.39,16.09-36.73,18.09-34.43,22.89-48.23a142.82,142.82,0,0,0,6.84-31.53S605,513.68,605,520c0,7.74-2.29,14.74-7.35,26.59-4.72,11.1-10.14,19.24-15.74,29.38S567.56,601.49,562.66,614.08Z"/><path d="M497.12,614.08a118.61,118.61,0,0,1-8.4-10.14c-3.5-4.9-7.7-15-15.39-26.24s-16.09-26.23-19.59-35.33-4.41-26.89-1.52-40.53c2.93-13.87,7.38-18.7,9.21-21a19.39,19.39,0,0,1,5.6-4.89,52.36,52.36,0,0,0-1.4,7.34c-.35,3.5.35,14.34,4.9,26.59s9.44,26.23,16.79,40.58,11.19,25.18,15.39,43.38,8.75,43.72,8.75,43.72a9.55,9.55,0,0,1-2.1-3.85c-.7-2.44-6.65-23.78-9.8-34.28s-8.39-27.63-15.39-41.28-12.24-24.48-16.09-37.43-5.95-23.44-5.95-23.44a77.56,77.56,0,0,0-.35,11.9c.35,6,4.9,22.39,9.8,33.58s14,29.39,20.64,45.48a250.36,250.36,0,0,1,10.84,34.63S495,600.44,487,586.1s-18.09-34.43-22.89-48.23a142.82,142.82,0,0,1-6.84-31.53s-2.47,7.34-2.45,13.64c0,7.74,2.29,14.74,7.34,26.59,4.73,11.1,10.15,19.24,15.74,29.38S492.22,601.49,497.12,614.08Z"/><path d="M549.37,612s1-3.85,2.1-8.4A293.44,293.44,0,0,1,562,563.71c7.84-23.13,14.15-32.66,19.59-48.62,6.36-18.65,10.37-30.09,7.59-47.36-2-12.64-8.93-24.83-12.46-29.91-4.46-6.43-8.42-9.14-8.42-9.14a76,76,0,0,1,.35,8.4c0,5.59-.35,23.08-3.15,37.78s-6.65,31.13-11.54,54.57A502.06,502.06,0,0,0,545.17,590c-2.1,27.63-1.75,48.27-1.75,48.27s2.1-15.39,3.85-37.43,4.2-40.93,9.1-62.27S565,501.42,569,484.3c4.9-21.34,2.8-42.68,2.8-42.68a26.28,26.28,0,0,1,4.55,13.3,116.57,116.57,0,0,1-2.1,26.58c-1.75,8.4-5.25,17.84-8.75,33.94s-8.74,37.78-8.74,37.78,10.84-23.79,15.74-40.23,8.39-35.34,8.74-43.73a93.19,93.19,0,0,0-1.05-16.79s3.85,4.2,4.2,18.54-4.2,29.38-8,41.28-15.18,36.08-18.19,47.92c-4.9,19.24-9.1,43-9.45,45.83A15.8,15.8,0,0,0,549.37,612Z"/><path d="M520.2,637.92a36.59,36.59,0,0,1-1.4-5.95c-.35-2.8-1-23.79-1.75-42.33s-4.54-36.73-8-59.82S501,491.69,497.47,471.4s-2.45-44.43.69-54.92,9.45-22.74,26.94-24.14,25.54,3.5,32.18,14.7,7,24.83,7,37.78-1.4,24.13-5.6,43.72-9.09,45.83-11.54,65.07-4.2,37.08-4.9,50-.35,25.54-.7,29-1.4,4.9-1.4,4.9-1-1.4-1-7-.35-23.79,1.4-49.32a499.2,499.2,0,0,1,7.35-59.47c3.15-17.5,6.65-34.64,8.74-55.28s1.65-43.48-1.74-51.07c-6-13.29-14.35-16.09-14.35-16.09s6,8.74,7,25.89,1.4,29-1.4,52.47-4.9,44.08-6,70.31-3.15,78-3.5,81.86-1,8.4-1,8.4a36.9,36.9,0,0,1-1.05-8.75c0-4.9,0-48.27,1.05-73.46s1-44.43,3.84-73.46,2.88-44.08,2.45-54.93c-.7-17.84-8-29.73-8-29.73s-.7,7.34-.7,23.79c0,26.23-1,83.6-1,102.15s-1.05,107.39-1.05,109.84a14.33,14.33,0,0,1-1,4.9,17.89,17.89,0,0,1-1.4-6.3c0-3.15-1.4-69.62-1.4-98.3s-1.05-89.2-1.05-109.14-.35-26.94-.35-26.94-5.8,11.21-7,21c-1.75,14.34-1,29.38.7,52.82s3.5,37.43,4.55,67.52,1.75,61.92,1.75,71.36-.35,18.54-.35,21.34a26.49,26.49,0,0,1-.7,5.6s-1.75-2.1-1.75-8.05-.7-37.43-1.75-58.77-2.8-53.87-7-87.8-4.2-57.37-1.4-67.87,6.64-16.44,6.64-16.44-14.06,6.43-16.09,21.34c-2.1,15.39-1.77,27.65-.7,46.87.7,12.6,8.4,51.43,10.5,63.67s5.24,33.23,6.64,54.22,1,43.73,1,46.88A33.3,33.3,0,0,1,520.2,637.92Z"/><path class="cls-5" d="M498.9,676.73a69,69,0,1,0,66.92,1.64c-2.38-1.51-5-3.37-5.39-5.47a5,5,0,0,1,1.75-4.55,21.77,21.77,0,0,0,4.2-7,33.8,33.8,0,0,0,.7-7c4.2,0,5.6-3.15,5.6-7s-2.1-8-7.35-8H496c-3.76,0-7.35,3.32-7.35,8.3s3.41,7.09,6.3,7.09a27.91,27.91,0,0,0,1.57,6c1.05,2.36,2.1,4.72,3.41,6a4.4,4.4,0,0,1,1.32,4.72C500.84,673.05,500.46,675.59,498.9,676.73Z"/><path class="cls-1" d="M552.84,777.75c14.44-6.46,26.85-22.87,26.85-44,0-12.2-7.69-29.22-16.68-40.78a212.47,212.47,0,0,0-14.82-17.29h6.75a13.9,13.9,0,0,0,2.8,3c2.79,2.28,7.55,5.82,9.6,8.05,3.87,4.19,12.3,14.38,16.81,26.85a62.62,62.62,0,0,1,3.93,21.95c0,33.25-25.72,60.21-57.44,60.21s-57.44-27-57.44-60.21c0-8.38,1.46-17.06,4.58-23.6s5.28-10.6,7.9-14.18c9.21-12.6,13-14.08,15.92-16.27a17.73,17.73,0,0,0,4.55-6h11.6a92.42,92.42,0,0,0-13.06,10c-8.86,8-14.42,20-14.42,34.39,0,27.38,19.22,52.74,42.92,52.74,9.68,0,16.33-1.91,23.13-6.65l-3.41,11.81"/><path class="cls-6" d="M495.45,643.16h70.06a4.07,4.07,0,0,1,3.67,4.2c0,2.62-2.1,4.71-3.94,4.71H495.45c-1.31,0-3.41-1.3-3.41-4.18S493.09,643.16,495.45,643.16Z"/><rect height="3.41" rx="1.05" ry="1.05" width="42.5" x="516.44" y="645.79"/><path d="M519.53,660.22H556c0,3.67-2.36,6.56-3.93,6.56H523.72C522.15,666.78,519.53,664.94,519.53,660.22Z"/><path class="cls-1" d="M505.76,672.29l.16-2.36a11.86,11.86,0,0,0,4,1h45v1.32Z"/><path class="cls-7" d="M556,673.6c0-3.5,1-4.79,2.49-6.3,2.89-3,5.6-7.59,5.18-11.54H498.34c0,4.49,2.39,8.7,5.2,11.67a6.93,6.93,0,0,1,1.21,5.47"/><path class="cls-8" d="M529.91,360.16c41.28,0,58-2.08,74.88-5.6s22.74-7,22.74-7c7.87,11,19.42,29.26,40.93,43.72C698.9,411.76,743,416,743,416s-.52,49.84-19.94,131.7c-10.66,45-30.72,117.15-66.64,181.56-37.25,66.81-67.65,87.53-88.33,101.1-22.39,14.69-38.48,16.09-38.48,16.09s-16.09-1.4-38.48-16.09C470.42,816.75,440,796,402.77,729.22c-35.91-64.41-56-136.6-66.64-181.56C316.72,465.8,316.19,416,316.19,416s44.08-4.2,74.51-24.67c21.51-14.46,32.36-32.71,40.23-43.72,0,0,5.95,3.49,22.74,7S488.63,360.16,529.91,360.16Z"/><path class="cls-9" d="M529.35,358c18.63,0,46.88-1.31,65.51-3.93,16.72-2.36,24.13-5.25,24.13-5.25s-20.72-3.15-40.93-4.72-34.28-1.57-48.71-1.57h0c-14.43,0-28.51,0-48.71,1.57s-40.93,4.72-40.93,4.72,7.41,2.89,24.13,5.25c18.63,2.62,46.88,3.93,65.51,3.93Z"/><path class="cls-10" d="M619,348.81s-20.72-3.15-40.93-4.72-34.28-1.57-48.71-1.57h0c-14.43,0-28.51,0-48.71,1.57s-40.93,4.72-40.93,4.72"/><path class="cls-9" d="M529.35,261c3.12,0,4,2.88,4.82,3.14s3.32.26,5.25,1.71a7.77,7.77,0,0,1,3.15,5.77s4.54-11.48,4.54-22.76c0-23.09-4.46-39.35-6.83-44.86s-4.46-6.83-4.46-6.83l-1.13.35a9,9,0,0,0-1.05,3.15c-.53,2.45-4.29,9.58-4.29,9.58C528.88,213.41,529.35,261,529.35,261Z"/><path class="cls-9" d="M424.71,306.83a17,17,0,0,0,3.41,2.63,22.7,22.7,0,0,0,4.73,1.31s2.13-2.63,1.57-5.51a13,13,0,0,0-5.77-8.13s2.41,1.41,3.67.78c1.75-.87,1.92-2.1,1.05-3.15a2.2,2.2,0,0,0-3.09-.32c-1.31.78-1.89.06-2.42-.73s-.79-1.83-2.1-1.83-1.57,1.83-2.62,2.62-1.31-.26-2.36-1.57a7.81,7.81,0,0,0-5.25-2.63c-2.36-.26-4.2-.78-4.72,1.05s-.79,3.15-.79,3.15-2.1-.26-2.89.79-.78,3.93.53,3.67a23,23,0,0,1,5.51-.52c2.36.26,3.41.62,5.68-.35a5,5,0,0,1,5.34.87c1.42,1.19,1.57,3.41,1.31,4.72S424.71,306.83,424.71,306.83Z"/><path class="cls-9" d="M434.07,233a20.85,20.85,0,0,0-3,4.53,10.49,10.49,0,0,0-.35,6.64s-7.52-.17-13,2.3c-6.11,2.78-8,5.95-8.57,8.92a18.55,18.55,0,0,0,1.4,10,65.33,65.33,0,0,0,6.47,11.54,78.72,78.72,0,0,1,6.48,10.5,8.07,8.07,0,0,1,.7,2.62l-1.58.88a18.64,18.64,0,0,0-3.32-2.1,36.39,36.39,0,0,0-4.2-1.4s-7.52-8.4-11.89-14-7.53-18-.35-25.72S417.1,232.5,434.07,233Z"/><path class="cls-9" d="M511.9,219a75.39,75.39,0,0,1,1.93-8.22c.87-2.63,2.62-7.35,2.62-7.35s-17,11-29.38,14.87-35.86,9.27-42.51,11.19-13.64,7.7-10.32,16.79,17,33.06,17,33.06-.7-4.9,4.9-7.34,10.32-2.8,13.29-.18a8.34,8.34,0,0,1,3,5.77l1.92-1.05s0-4.19-1.75-14.34-4.2-17.49-3.5-21.69,2.1-5.42,4.37-5.95a100.8,100.8,0,0,0,17.5-4.54C498.7,227.12,511.9,219,511.9,219Z"/><path class="cls-9" d="M529.31,261c-2.8,0-3,2.22-4.84,2.75s-4.1,0-6,1.44c-3.15,2.36-2.23,6.69-2.23,6.69s-4.64-11.74-4.64-23c0-23.09,4.46-39.35,6.82-44.86s4.46-6.83,4.46-6.83l1.13.35a9,9,0,0,1,1,3.15c.53,2.45,4.29,9.58,4.29,9.58C528.61,212.69,529.31,261,529.31,261Z"/><path class="cls-9" d="M528.61,281.91a21.3,21.3,0,0,1-3.15,7.34c-1.31,2.1-3.41,3.94-4.46,4.2s-2.36-1.83-2.36-1.83a5.21,5.21,0,0,1-2.89,1.05,2.42,2.42,0,0,1-2.62-2.37,10.92,10.92,0,0,1,.26-2.36,3.17,3.17,0,0,0-2.1-.78c-1.31,0-3.41-1.84-3.67-3.15a4.34,4.34,0,0,1,2.62-4.2c1.84-.79,3.41-1.58,3.41-1.58s-.33-2.62,1.05-3.41,2.36,0,3.41.79,2.63,2.1,3.41,1.31,0-2.36-1.57-3.93-2.1-4.46-.52-6,2.88-.78,4.72-.78,2.18-1.84,3.67-2.36a2.8,2.8,0,0,1,3.41.78,22.39,22.39,0,0,1,1.84,2.1,3.78,3.78,0,0,1,3.41.26,4.88,4.88,0,0,1,2.62,3.15c.58,1.77-.2,2.69-1.83,4.2-1.13,1-1.31,2.89,0,2.89s3.11-3.52,5.43-4c2.49-.52,3.81,1.05,4.54,3.48.68,2.28,0,3.15,1.57,3.94s3.15,1.83,2.89,4.46-2.1,3.15-3.94,3.41-1.57,1.57-1.31,2.88-1.05,2.89-3.67,3.15a9.88,9.88,0,0,1-5.25-1.31s-2.75,1.67-4.2-.26c-3.15-4.2-4-6.56-4.72-10.23"/><path class="cls-9" d="M465.64,292.4a40.54,40.54,0,0,1-.77,5.23,27.08,27.08,0,0,1-2.38,5.27c-2.1-.26-3.93-2.63-3.93-2.63a32.73,32.73,0,0,1-4.73-.78c-1.83-.53-3.67-3.41-3.14-6.82s2.62-4.46,4.19-4.73,2.89-.52,2.89-.52l.52-1.31a11.77,11.77,0,0,1-3.67-3.15c-1.57-2.1-1.57-6.82,2.1-8.66s6.82-2.89,9.18-1.84,3.94,2.1,3.94,4.46a40.9,40.9,0,0,1-.26,4.46l1.31.79s1.57-3.15,4.72-2.89,5.77,1.58,6,5.51a8.19,8.19,0,0,1-2.37,6.3,14.63,14.63,0,0,1-1.57,5,8.93,8.93,0,0,1-3.41,3.41s-2.52-2.21-3.92-3.7-3.15-3.85-3.15-3.85l-1.33-2.16Z"/><path class="cls-11" d="M515.8,177a14.55,14.55,0,0,1,7.25-8.33l.08,0c1.32,2.8,1.48,6.24,1.67,8.48a31.08,31.08,0,0,1-4.55.27c-2-.09-4.37-.44-4.37-.44Z"/><path class="cls-9" d="M529.4,194.72a6,6,0,0,1,3.13,1.26l0,0a3,3,0,0,0-3.13-2.65h0a2.82,2.82,0,0,0-3,2.5l-.19.19a5.08,5.08,0,0,1,3.13-1.26Z"/><path class="cls-12" d="M529.31,260.69a5.13,5.13,0,1,0-5.12-5.13A5.13,5.13,0,0,0,529.31,260.69Z"/><path class="cls-13" d="M529.31,219a5.44,5.44,0,1,0-5.44-5.43A5.44,5.44,0,0,0,529.31,219Z"/><path class="cls-14" d="M518.33,199.37s.18.16-3.76,2.65c-1.31-.4-2.18-1-2.18-2.65a3,3,0,0,1,5.94,0Z"/><path class="cls-14" d="M502.77,209.31a3.1,3.1,0,1,0-3.1-3.09A3.09,3.09,0,0,0,502.77,209.31Z"/><path class="cls-14" d="M491,214.73a3.53,3.53,0,1,0-3.53-3.53A3.52,3.52,0,0,0,491,214.73Z"/><path class="cls-15" d="M478.1,220.67a5,5,0,1,0-5-5A5,5,0,0,0,478.1,220.67Z"/><circle class="cls-15" cx="464.2" cy="219.47" r="5.78"/><path class="cls-15" d="M451.6,230.49a5.78,5.78,0,1,0-5.78-5.78A5.78,5.78,0,0,0,451.6,230.49Z"/><path class="cls-16" d="M444.91,243.73a5.64,5.64,0,1,0-5.64-5.64A5.63,5.63,0,0,0,444.91,243.73Z"/><circle class="cls-16" cx="448.98" cy="252.26" r="5.16" transform="translate(-62.36 191.02) rotate(-22.5)"/><path class="cls-16" d="M454.62,269.28a4.69,4.69,0,1,0-4.69-4.69A4.69,4.69,0,0,0,454.62,269.28Z"/><path class="cls-17" d="M424.19,235.23a5.79,5.79,0,1,0-5.78-5.78A5.78,5.78,0,0,0,424.19,235.23Z"/><path class="cls-17" d="M407.79,241a5.23,5.23,0,1,0-5.23-5.23A5.23,5.23,0,0,0,407.79,241Z"/><circle class="cls-17" cx="395.98" cy="250.69" r="5.23"/><path class="cls-17" d="M396.51,271.41a5.23,5.23,0,1,0-5.23-5.23A5.23,5.23,0,0,0,396.51,271.41Z"/><path class="cls-17" d="M406.22,286.63A5.23,5.23,0,1,0,401,281.4,5.23,5.23,0,0,0,406.22,286.63Z"/><path class="cls-14" d="M425.89,333.86c-1-4.93,0-9.28.79-9.45,1.18-.26,3.46,2.64,4.33,7.48.81,4.54,1.17,10.09-.13,10.36C428.7,342.71,427,339.58,425.89,333.86Z"/><path class="cls-14" d="M427.2,322.79s1.55.2,3.15,2.8A18.52,18.52,0,0,1,432.6,332a29.67,29.67,0,0,1,.43,7.69c-.17,2.54-.78,3.42-1.76,4.27a1.85,1.85,0,0,0,2.11-.51c.79-1,2.09-4.61,1-10.77s-3.79-9.2-4.72-10C428.12,321.39,427.2,322.79,427.2,322.79Z"/><path class="cls-9" d="M420.25,305.87a3,3,0,1,0-3-3A3,3,0,0,0,420.25,305.87Z"/><path class="cls-18" d="M465.13,291.77a4.08,4.08,0,1,0-4.08-4.08A4.08,4.08,0,0,0,465.13,291.77Z"/><path class="cls-18" d="M528.61,286a4.08,4.08,0,1,0-4.08-4.08A4.08,4.08,0,0,0,528.61,286Z"/><path class="cls-19" d="M524.67,197.69c-1.75,4.37-3.71,9-5.07,20.64a158.18,158.18,0,0,0-.35,32.88,68.45,68.45,0,0,0,2.1,12.77"/><path class="cls-20" d="M445.79,228.82c-3.85,2.1-7.39,3.11-8.75,9.1-1.22,5.42.7,9.79,3,14.34s12.59,23.26,12.59,23.26"/><path class="cls-20" d="M465.55,270.63s-2.89-10.82-4.89-18.54c-1.92-7.37-3.23-10-3.68-14.17a9.76,9.76,0,0,1,7.52-10.85c5.43-1.22,10.67-2.79,19.94-5.59s14.7-6.82,21.34-10.5a40.61,40.61,0,0,0,10.5-8.22"/><path class="cls-20" d="M514.7,210.28s-8.8,8.13-18.71,12.25c-10.48,4.35-21,6.45-24.66,7.69-3.31,1.12-7.53,2.28-6.65,8.22s1.92,10.67,3.15,17,3.67,21.16,3.67,21.16"/><path class="cls-21" d="M422.88,237.74c-4.9,1.75-10.73,4.46-14.67,8.66a16.65,16.65,0,0,0-4.92,12.51c0,4.2,1.22,10.49,4.72,14.87s4.9,5.94,4.9,5.94"/><path class="cls-22" d="M416.4,299.14c-1.57-1.4-4.36-4.05-8,.33"/><path class="cls-22" d="M424.1,300.36c1.4-1.22,2.64-2.12,2.64-2.12"/><path class="cls-23" d="M453.31,292a14,14,0,0,1,2.45-2.45"/><path class="cls-23" d="M455.23,281.65a14.7,14.7,0,0,1,0-3"/><path class="cls-24" d="M458,276.4a3.89,3.89,0,0,1,2.8-1.58"/><path class="cls-24" d="M465.38,275a2,2,0,0,1,2.27,1.75"/><path class="cls-24" d="M473.42,282.17a3.91,3.91,0,0,1,2.63-1.05"/><path class="cls-24" d="M479,283.4c.7.87,1.23,1.39,1.23,2.09"/><path class="cls-24" d="M477.8,290.39a17,17,0,0,1-1.93,4.55"/><line class="cls-24" x1="461.53" x2="463.11" y1="280.07" y2="283.92"/><polyline points="460.83 288.99 457.51 292.31 461.71 290.39"/><polyline points="468.53 285.67 474.12 284.1 469.4 287.24"/><path class="cls-9" d="M634,306.83a17,17,0,0,1-3.41,2.63,22.67,22.67,0,0,1-4.72,1.31s-2.14-2.63-1.58-5.51a13,13,0,0,1,5.77-8.13s-2.41,1.41-3.67.78c-1.75-.87-1.92-2.1-1.05-3.15.71-.85,1.81-.8,3.12,0s1.87-.24,2.39-1,.79-1.83,2.1-1.83,1.57,1.83,2.62,2.62.79-1,2-2.21a10.54,10.54,0,0,1,6.12-2.45c2.37-.26,3.71-.32,4.23,1.51s.79,3.15.79,3.15,2.1-.26,2.89.79.78,3.93-.53,3.67a23,23,0,0,0-5.51-.52c-2.36.26-3.41.62-5.68-.35a5,5,0,0,0-5.34.87c-1.42,1.19-1.57,3.41-1.31,4.72S634,306.83,634,306.83Z"/><path class="cls-9" d="M624.59,233a26.92,26.92,0,0,1,2.27,4.55,18.77,18.77,0,0,1,.88,6.12s8-.35,13.12,2.8,8,5.95,8.57,8.92a18.55,18.55,0,0,1-1.4,10,65.33,65.33,0,0,1-6.47,11.54,77.38,77.38,0,0,0-6.47,10.5,8.07,8.07,0,0,0-.7,2.62l1.57.88a18.64,18.64,0,0,1,3.32-2.1,36.39,36.39,0,0,1,4.2-1.4s7.52-8.4,11.89-14,7.53-18,.35-25.72S641.56,232.5,624.59,233Z"/><path class="cls-9" d="M546.76,219a75.39,75.39,0,0,0-1.93-8.22c-.87-2.63-2.62-7.35-2.62-7.35s17,11,29.38,14.87,35.86,9.27,42.51,11.19,13.64,7.7,10.32,16.79-17,33.06-17,33.06.7-4.9-4.9-7.34-10.32-2.8-13.29-.18a8.35,8.35,0,0,0-3,5.77l-1.93-1.05s0-4.19,1.75-14.34,4.08-17.25,3.5-21.69c-.55-4.22-2.1-5.42-4.37-5.95s-9.8-1.39-17.5-4.54S546.76,219,546.76,219Z"/><path class="cls-9" d="M593,292.4s.52,3.15,1.05,5.25a33,33,0,0,0,2.1,5.25c2.1-.26,3.93-2.63,3.93-2.63a32.73,32.73,0,0,0,4.73-.78c1.83-.53,3.67-3.41,3.14-6.82s-2.62-4.46-4.19-4.73-2.89-.52-2.89-.52l-.52-1.31A11.77,11.77,0,0,0,604,283c1.57-2.1,1.57-6.82-2.1-8.66s-6.82-2.89-9.18-1.84-3.94,2.1-3.94,4.46a40.9,40.9,0,0,0,.26,4.46l-1.31.79s-1.57-3.15-4.72-2.89-5.77,1.58-6,5.51a8.16,8.16,0,0,0,2.36,6.3,14.63,14.63,0,0,0,1.57,5,6.23,6.23,0,0,0,3.2,2.95l7-7.15,1.58-2.1Z"/><path class="cls-9" d="M529.85,165.33a35,35,0,0,1,3.93.28s-.35-2.44-.87-4.89-1-5.56-1-5.56,3.07.17,4.81.43,5.69.93,5.69.93v-6.6s-2.71.17-4.9.35-5.42.26-5.42.26.44-3,.7-4.59.79-4.9.79-4.9l-3.76,0h-.05L526,141s.53,3.32.79,4.9.48,4.68.48,4.68-2.89-.18-5.07-.35-5-.53-5-.53v6.78s3.93-.67,5.68-.93a37.05,37.05,0,0,1,4.42-.25,41.46,41.46,0,0,1-.7,4.72,48.47,48.47,0,0,0-.74,5.55,35,35,0,0,1,3.93-.28Z"/><path class="cls-11" d="M543.28,177a14.55,14.55,0,0,0-7.25-8.33l-.08,0c-1.32,2.8-1.48,6.24-1.67,8.48a31.08,31.08,0,0,0,4.55.27c2-.09,4.38-.44,4.38-.44Z"/><path class="cls-11" d="M529.61,185.77h-.05a45.15,45.15,0,0,1,13,2.21h0a14.51,14.51,0,0,0,1.44-6.32,14.21,14.21,0,0,0-.3-2.93l-.09,0a93.2,93.2,0,0,1-11.19.53,32.55,32.55,0,0,1,.35-6.48c.52-2.44,1.13-4.81,1.13-4.81v-.09a14.68,14.68,0,0,0-4.37-.67h0a14.68,14.68,0,0,0-4.37.67V168s.61,2.37,1.13,4.81a32.55,32.55,0,0,1,.35,6.48,93.2,93.2,0,0,1-11.19-.53l-.09,0a14.21,14.21,0,0,0-.3,2.93,14.51,14.51,0,0,0,1.44,6.32h0a45.15,45.15,0,0,1,13-2.21h.09Z"/><path class="cls-11" d="M529.56,192.2a4.34,4.34,0,0,1,4.39,3.26h0a14.43,14.43,0,0,0,7.89-6.11v0a36.43,36.43,0,0,0-12.25-2h0a36.43,36.43,0,0,0-12.25,2v0a14.43,14.43,0,0,0,7.89,6.11h0a4.34,4.34,0,0,1,4.39-3.26"/><path class="cls-14" d="M540.33,199.37s-.18.16,3.76,2.65c1.31-.4,2.18-1,2.18-2.65a3,3,0,1,0-5.94,0Z"/><path class="cls-14" d="M555.89,209.18a3,3,0,1,1,3-3A3,3,0,0,1,555.89,209.18Z"/><path class="cls-14" d="M567.7,214.73a3.53,3.53,0,1,1,3.53-3.53A3.52,3.52,0,0,1,567.7,214.73Z"/><path class="cls-25" d="M580.56,220.67a5,5,0,1,1,5-5A5,5,0,0,1,580.56,220.67Z"/><path class="cls-25" d="M594.46,225.25a5.79,5.79,0,1,1,5.79-5.78A5.78,5.78,0,0,1,594.46,225.25Z"/><path class="cls-25" d="M607.06,230.49a5.78,5.78,0,1,1,5.78-5.78A5.78,5.78,0,0,1,607.06,230.49Z"/><path class="cls-16" d="M613.75,243.73a5.64,5.64,0,1,1,5.64-5.64A5.63,5.63,0,0,1,613.75,243.73Z"/><circle class="cls-16" cx="609.68" cy="252.26" r="5.16"/><path class="cls-16" d="M604,269.28a4.69,4.69,0,1,1,4.69-4.69A4.69,4.69,0,0,1,604,269.28Z"/><path class="cls-25" d="M634.47,235.23a5.79,5.79,0,1,1,5.79-5.78A5.78,5.78,0,0,1,634.47,235.23Z"/><circle class="cls-25" cx="650.87" cy="235.74" r="5.23"/><circle class="cls-25" cx="662.68" cy="250.69" r="5.23"/><path class="cls-25" d="M662.15,271.41a5.23,5.23,0,1,1,5.23-5.23A5.23,5.23,0,0,1,662.15,271.41Z"/><path class="cls-25" d="M652.45,286.63a5.23,5.23,0,1,1,5.22-5.23A5.23,5.23,0,0,1,652.45,286.63Z"/><path class="cls-14" d="M632.77,333.86c1-4.93,0-9.28-.79-9.45-1.18-.26-3.46,2.64-4.33,7.48-1,5.35-.51,10.29.5,10.43C630,342.58,631.72,339.1,632.77,333.86Z"/><path class="cls-14" d="M631.46,322.58a8.76,8.76,0,0,0-3.15,3,22.77,22.77,0,0,0-2.49,6.69,21.3,21.3,0,0,0-.15,7.55c.38,3.36,1.72,4.13,1.72,4.13a1.74,1.74,0,0,1-2-.51c-.79-1-2.16-4.61-1.11-10.77s3.79-9.2,4.72-10C630.54,321.39,631.46,322.58,631.46,322.58Z"/><path class="cls-14" d="M588.56,338.32c-18.89-2.1-33.76-2.89-59.21-2.89h0c-25.45,0-40.32.79-59.21,2.89"/><path class="cls-14" d="M622.39,341.6c-.19-.79-.78-3-.1-8.47.75-6.05,2.66-8.52,3-9.11a13.21,13.21,0,0,1,1.57-2.1c.46-.46,2.11-1.71,2.11-1.71s-.14-1.67-3.14-2.09c-3.68-.53-4.07.08-6.25-.46s-3-1.71-5-2.43a68.72,68.72,0,0,0-8.07-2c-2.06-.42-4.73.26-7.09-.27-2.19-.48-4.2-1.31-7.34-2.1s-12.65-1.64-19.48-2.16-33.23-1.31-43.2-1.31h0c-10,0-36.38.79-43.2,1.31s-21.52,2.1-22.31,2.36-1.83,1.05-3.93,1.84-4.72.26-6.82.26-6.82,1.57-8.92,2.1-2.36,1.84-4.46,2.62-3.15-.26-6.82.27c-3.22.45-3.36,2.09-3.36,2.09a16.86,16.86,0,0,1,2.36,1.64,11,11,0,0,1,1.51,2.23,21.2,21.2,0,0,1,2.91,8.18,22.31,22.31,0,0,1-.09,8.94,18.86,18.86,0,0,1-.72,2.56c-.26.72-1,2.58-1,2.58s16.78-3,38.56-4.87,29.91-1.84,56.32-1.84h0c26.41,0,34.55,0,56.32,1.84s38.28,5,38.28,5-.64-1.62-.9-2.41S622.59,342.38,622.39,341.6Z"/><path class="cls-14" d="M527.43,298.57c2.56,0,3.22-.15,9.12,4.13,2.88,2.1,4,3.67,7.15,3.67s12.59-4,14.69-5.31a8.15,8.15,0,0,1,5.77-1.31c1.84.26,4.2,2.1,6.56,4.46s3.15,3.41,5,3.67,5-1.31,7.35-2.36,3.67-2.1,6-1.84,3.94,2.37,5.51,3.94,2.89,3.67,4.73,3.94a11.37,11.37,0,0,0,6-1.32c1.31-.78,4.72-2.62,6.56-1.83s5.51,7.34,8.13,8.13,6.56-1.05,8.14-2.1a22.75,22.75,0,0,0,3.67-3.67s-6.38,3.36-10,2.36c-4.82-1.34-5.37-3.35-6.07-7.89-.36-2.35-3.84-1.93-3.84-1.93s-7.41,5.88-12.13,4.31-4.46-2.62-6.3-5.77a22.63,22.63,0,0,1-2.36-7.35s-4.72,5.51-7.34,7.09-6.56,2.09-9.45-.27a30.32,30.32,0,0,1-5.25-6l-7.15-1s-6.72,5.25-10,6.1c-3.61.91-9.26,1.75-15.15-2a25.38,25.38,0,0,1-8.53-10h0a38.76,38.76,0,0,1-10.39,9.18c-4.25,2.4-8.34,3.87-12.07,3.15-3.36-.65-9.78-7-9.78-7l-5.77.53a22,22,0,0,1-6,7,8.62,8.62,0,0,1-9.45.27c-2.62-1.58-7.34-7.09-7.34-7.09a22.63,22.63,0,0,1-2.36,7.35c-1.84,3.15-1.58,4.2-6.3,5.77s-11.28-3.94-11.28-3.94-3.67-.48-4.2,1.84c-1.31,5.77-1.74,6.27-6.56,7.61-3.59,1-10-2.36-10-2.36a22.75,22.75,0,0,0,3.67,3.67c1.58,1.05,5.51,2.89,8.14,2.1s6.29-7.35,8.13-8.13,5.25,1,6.56,1.83a11.37,11.37,0,0,0,6,1.32c1.84-.27,3.15-2.37,4.73-3.94s3.15-3.67,5.51-3.94,3.67.79,6,1.84,5.51,2.63,7.35,2.36,2.62-1.31,5-3.67,4.72-4.2,6.56-4.46a8.15,8.15,0,0,1,5.77,1.31c2.1,1.31,8.14,5,11.29,5s3.89-1.64,6.82-3.68c5-3.47,6.29-3.8,9-3.8Z"/><path class="cls-26" d="M565.44,295.35c-2.77-.15-4.77-4.77-4.46-10.31s2.8-9.9,5.57-9.75,4.77,4.77,4.46,10.31S568.21,295.5,565.44,295.35Z"/><path class="cls-9" d="M638.41,305.87a3,3,0,1,1,3-3A3,3,0,0,1,638.41,305.87Z"/><path class="cls-18" d="M593.53,291.77a4.08,4.08,0,1,1,4.08-4.08A4.08,4.08,0,0,1,593.53,291.77Z"/><path class="cls-19" d="M534,197.69c1.75,4.37,3.71,9,5.07,20.64a158.18,158.18,0,0,1,.35,32.88,60.55,60.55,0,0,1-2.35,13"/><path class="cls-20" d="M612.87,228.82c3.85,2.1,7.39,3.11,8.75,9.1,1.22,5.42-.7,9.79-3,14.34s-12.59,23.26-12.59,23.26"/><path class="cls-20" d="M593.11,270.63s2.8-10.85,4.89-18.54,3-11.33,3.47-14.72c.65-4.69-1.89-9.07-7.31-10.3s-10.67-2.79-19.94-5.59-14.7-6.82-21.34-10.5a40.61,40.61,0,0,1-10.5-8.22"/><path class="cls-20" d="M544,210.28s8.92,7.87,18.71,12.25,21.34,6.64,24.67,7.69,7.52,2.28,6.64,8.22-1.92,10.67-3.15,17-3.67,21.16-3.67,21.16"/><path class="cls-21" d="M635.78,237.74c4.9,1.75,10.85,3.68,14.52,8.4s5.07,8.57,5.07,12.77-1.22,10.49-4.72,14.87-4.89,5.94-4.89,5.94"/><path class="cls-23" d="M642.26,299.14c1.57-1.4,3.67-3.15,6.47-.35"/><path class="cls-23" d="M634.56,300.36a22.63,22.63,0,0,1-2.62-2.8"/><path class="cls-23" d="M605.35,292a14,14,0,0,0-2.45-2.45"/><path class="cls-23" d="M603.43,281.65a14.7,14.7,0,0,0,0-3"/><path class="cls-24" d="M600.63,276.4a3.89,3.89,0,0,0-2.8-1.58"/><path class="cls-24" d="M593.28,275a2,2,0,0,0-2.27,1.75"/><path class="cls-24" d="M585.24,282.17a3.91,3.91,0,0,0-2.63-1.05"/><path class="cls-24" d="M579.64,283.4c-.7.87-1.23,1.39-1.23,2.09"/><path class="cls-24" d="M580.86,290.39a17,17,0,0,0,1.93,4.55"/><line class="cls-27" x1="597.13" x2="595.56" y1="280.07" y2="283.92"/><polyline points="597.83 288.99 601.15 292.31 596.96 290.39"/><polyline points="590.13 285.67 584.54 284.1 589.26 287.24"/><polyline points="528.15 277.89 529.2 271.46 529.64 277.89"/><polyline points="524.21 280.93 518.62 282.85 524.21 282.85"/><path class="cls-24" d="M512.08,281.65s-1.57-.18-1.57.52-.53,1.92.17,2.45l2.1,1.57"/><path class="cls-24" d="M520.82,271.15s.18-2.62,1.06-3.32"/><path class="cls-24" d="M527.12,266.6c1.58-2.1,2.8-1.57,3.5-.87"/><path class="cls-24" d="M535.52,268.7c1.22.7,1.22,1.23,1.22,2.63"/><path class="cls-24" d="M542.16,276.92c1.75-.7,2.8-1.57,3.5.35"/><path class="cls-24" d="M549,282.52c1.22.88,2.27,2.45.17,3.67"/><polyline points="532.37 280.77 538.49 282.87 532.37 283.57"/><polygon class="cls-18" points="447.45 329.57 464.68 317.5 486.19 322.4 468.26 335.26 447.45 329.57"/><path class="cls-9" d="M444.91,227.6a18.61,18.61,0,0,0-6.82,2c-.44-.65-1.06-1.16-1.06-2a4.08,4.08,0,1,1,8.16,0Z"/><path class="cls-9" d="M613.47,227.6a4.08,4.08,0,0,1,8.16,0c0,.85-.62,1.36-1.06,2a18.61,18.61,0,0,0-6.82-2Z"/><path class="cls-26" d="M445.14,304c2.31-.7,3.05-5,1.65-9.64s-4.4-7.8-6.71-7.1-3.05,5-1.66,9.63S442.83,304.69,445.14,304Z"/><path class="cls-26" d="M614.65,304c-2.29-.62-3.07-4.64-1.75-9s4.24-7.34,6.53-6.71,3.07,4.64,1.75,9S616.94,304.61,614.65,304Z"/><path class="cls-18" d="M441.5,331.09a3.79,3.79,0,1,0-3.78-3.79A3.79,3.79,0,0,0,441.5,331.09Z"/><path class="cls-18" d="M442.55,340a3.79,3.79,0,1,0-3.78-3.79A3.79,3.79,0,0,0,442.55,340Z"/><path class="cls-26" d="M493.24,295.8c2.9-.16,5-5,4.66-10.77s-2.92-10.35-5.81-10.19-5,5-4.66,10.77S490.35,296,493.24,295.8Z"/><path class="cls-12" d="M529.3,203.57a4,4,0,1,0-4-4A4,4,0,0,0,529.3,203.57Z"/><path class="cls-12" d="M529.31,208a4,4,0,1,0-4-4A4,4,0,0,0,529.31,208Z"/><path class="cls-12" d="M529.31,212.93a4.22,4.22,0,1,0-4.22-4.22A4.22,4.22,0,0,0,529.31,212.93Z"/><path class="cls-12" d="M529.31,218.75a4.79,4.79,0,1,0-4.79-4.79A4.8,4.8,0,0,0,529.31,218.75Z"/><path class="cls-12" d="M529.31,227A5.32,5.32,0,1,0,524,221.7,5.32,5.32,0,0,0,529.31,227Z"/><path class="cls-12" d="M529.31,236.33a5.26,5.26,0,1,0-5.26-5.25A5.25,5.25,0,0,0,529.31,236.33Z"/><path class="cls-12" d="M529.31,248a5.2,5.2,0,1,0-5.2-5.19A5.19,5.19,0,0,0,529.31,248Z"/><path class="cls-28" d="M626.44,322.9a254.09,254.09,0,0,0-44.08-10.32c-14.69-2.1-36-2.8-53.17-2.8s-38.48.7-53.17,2.8a254.09,254.09,0,0,0-44.08,10.32"/><path class="cls-28" d="M623.51,342.84c-16.18-3-28.24-4.39-43.12-5.94a467.86,467.86,0,0,0-51.2-2.34A468.15,468.15,0,0,0,478,336.9c-14.87,1.55-26.93,3-43.11,5.94"/><ellipse class="cls-12" cx="529.35" cy="322.17" rx="23.5" ry="9.89"/><path class="cls-18" d="M617.16,331.09a3.79,3.79,0,1,1,3.78-3.79A3.79,3.79,0,0,1,617.16,331.09Z"/><path class="cls-18" d="M563.9,320.94a3.79,3.79,0,1,1,3.78-3.79A3.79,3.79,0,0,1,563.9,320.94Z"/><path class="cls-18" d="M616.11,340a3.79,3.79,0,1,1,3.78-3.79A3.79,3.79,0,0,1,616.11,340Z"/><circle class="cls-18" cx="563.55" cy="328" r="3.79" transform="translate(149.51 831.73) rotate(-80.78)"/><polygon class="cls-18" points="611.21 329.57 593.98 317.5 572.47 322.4 590.4 335.26 611.21 329.57"/><path class="cls-29" d="M529.35,329.88c-11.55,0-20.91-3.43-20.91-7.65s9.36-7.66,20.91-7.66,20.92,3.43,20.92,7.66S540.9,329.88,529.35,329.88Z"/><circle class="cls-18" cx="494.76" cy="317.15" r="3.79"/><path class="cls-18" d="M495.11,331.78a3.79,3.79,0,1,0-3.78-3.78A3.78,3.78,0,0,0,495.11,331.78Z"/><path class="cls-30" d="M439.27,348.81s7.81,2.89,24.53,5.25c18.63,2.62,46.88,3.93,65.51,3.93h0c18.63,0,46.88-1.31,65.51-3.93,16.72-2.36,24.53-5.25,24.53-5.25"/></svg>